# xmcd
#
# Track frame offsets: 
#        150
#        18872
#        43797
#        59687
#        77385
#        96037
#        114925
#        131927
#        145957
#        164135
#        180227
#        196395
#        216812
#        235875
#
# Disc length: 3398 seconds
#
# Revision: 3
# Processed by: cddbd v1.5.2PL0 Copyright (c) Steve Scherf et al.
# Submitted via: ExactAudioCopy v1.0b3
#
DISCID=c10d440e
DTITLE=Faith Hill - Breathe
DYEAR=2000
DGENRE=Country
TTITLE0=Breathe (Pop version)
TTITLE1=What's In It For Me
TTITLE2=I Got My Baby
TTITLE3=Love Is A Sweet Thing
TTITLE4=Breathe
TTITLE5=Let's Make Love
TTITLE6=It Will Be Me
TTITLE7=The Way You Love Me
TTITLE8=If I'm Not In Love
TTITLE9=Bringing Out The Elvis
TTITLE10=If My Heart Had Wings
TTITLE11=If I Should Fall Behind
TTITLE12=That's How Love Moves
TTITLE13=There Will Come A Day
EXTD=Japanese Version
EXTT0=
EXTT1=
EXTT2=
EXTT3=
EXTT4=
EXTT5=(With Tim McGraw)
EXTT6=
EXTT7=
EXTT8=
EXTT9=
EXTT10=
EXTT11=
EXTT12=
EXTT13=
PLAYORDER=
